/* XPM */
static char *c99e80b5de2e404482bd8d91c255e253vJouvjFn9zm4t1if[] = {
/* columns rows colors chars-per-pixel */
"32 32 77 1 ",
"  c black",
". c #030304",
"X c #040506",
"o c #070809",
"O c #090A0C",
"+ c #0D0E10",
"@ c #0D0F11",
"# c #15171A",
"$ c #232529",
"% c #2E3136",
"& c #32363B",
"* c #3A3E44",
"= c #3B3F45",
"- c #3D4147",
"; c #40444A",
": c #42464C",
"> c #474C53",
", c #484D54",
"< c #494E55",
"1 c #4B5057",
"2 c #4D525A",
"3 c #51565E",
"4 c #595E66",
"5 c #5B616A",
"6 c #5F656E",
"7 c #60666F",
"8 c #616770",
"9 c #666B75",
"0 c #676E77",
"q c #6C727C",
"w c #6D737E",
"e c #6F7580",
"r c #707681",
"t c #757C86",
"y c #78808B",
"u c #79818C",
"i c #7D848F",
"p c #7E8590",
"a c #828A96",
"s c #838A96",
"d c #858D99",
"f c #8D96A3",
"g c #8E97A4",
"h c #929AA7",
"j c #929BA8",
"k c #939CA9",
"l c #949CAA",
"z c #97A0AD",
"x c #9BA4B2",
"c c #9DA6B4",
"v c #9FA9B7",
"b c #A0A9B7",
"n c #A1AAB9",
"m c #A2ACBA",
"M c #A6B0BE",
"N c #A7B0BE",
"B c #A8B1C0",
"V c #A9B3C2",
"C c #AAB4C3",
"Z c #ACB6C5",
"A c #ADB7C7",
"S c #AFB9C8",
"D c #B0BACA",
"F c #B2BCCC",
"G c #B3BECE",
"H c #B5BFCF",
"J c #B7C2D2",
"K c #B8C3D3",
"L c #B9C3D4",
"P c #BBC6D6",
"I c #BCC7D8",
"U c #BEC9DA",
"Y c #BFCADB",
"T c #C0CADB",
"R c #C0CBDB",
"E c #C0CBDC",
"W c #C0CCDD",
/* pixels */
"EEEEEEEEEEEEEEEEEEEEEEEEEEEEEEEE",
"EEEEEEEEEEEEEEEUDcxVPUEEEEEEEEEE",
"EEEEEEEEEEEEEUGs2**>rVEEEEEEEEEE",
"EEEEEEEEEEEEEGt$.   #4VEEEEEEEEE",
"EEEEEEEEEEEEUj%      #rPEEEEEEEE",
"EEEEEEEEEEEEGrO      .>CEEEEEEEE",
"EEEEEEEEEEEWZ5        *xEEEEEEEE",
"EEEEEEEEEEEEZ6        *xEEEEEEEE",
"EEEEEEEEEEEEJu+      .3DEEEEEEEE",
"EEEEEEEEEEEEUc:      $sIEEEEEEEE",
"EEEEEEEEEEEEELg;+. o%pGTEEEEEEEE",
"EEEEEEEEEEEEEEKcu5*ehJEEEEEEEEEE",
"EEEEEEEEEEEEEEEUJn:GIEEEEEEEEEEE",
"EEEEEEEEEEEEEEEEWG<EEEEEEEEEEEEE",
"EEEEEEEEEEEEEEEEEG2EEEEEEEEEEEEE",
"EEEEEEEEEEVu777774$8778888uVEEEE",
"EEEEEEEEEELMvbvnvl-bbbbbbvVKTTWT",
"EEEEEEEEEEEWTWUEEG2TWTTWWTWTTWTW",
"EEEEEEEEEEWTWTEETG<ETWTWTWTWWTWT",
"EEEEEEEEEETWTWEETG1EWTWTWTWTTWTW",
"EEEEEWWEWWWEWEEEWG2TTWTWWTWTWTWT",
"EEEEEETWEEEEEEEETG2WWTWTTWTWTWTW",
"EEEEEEEEEEEETEEGhw&mTWTWWTWTWTWT",
"EEEEEEEEEEEEETKt9i<qNUWTTWTWTWTW",
"EEEEEEEEWTWTWPh0hPmtsSRWWTWTWTWT",
"EEEEEEEETWTWTMujPWWCykIWTWTWTWTW",
"EEEEEEEEWTWTUdsGTWWUfiZTWTWTWTWT",
"EEEEEEEETWTWVtzWWRYYSukUTWTWTWTW",
"EEEEEEEEWTWTDmGWTWTWUnCUTWTTTTTT",
"EEEEEEEETWTWTUTTWTWTTTUUWTWWTTTT",
"EEEEEEEEWTWTWTTWTWTWTWTWTWWTWTTR",
"EEEEEEEETWTWTWWTWTWTWTWTWTTWTWTW"
};
