/* XPM */
static char *e72674855c824dd4eb7f8b7feffac55ci0WNtP8KZ9VDsgfE[] = {
/* columns rows colors chars-per-pixel */
"32 32 143 2 ",
"   c #BCB400",
".  c #C3BB00",
"X  c #C1BB09",
"o  c #C4BD08",
"O  c #C4BE18",
"+  c #C2BE2B",
"@  c #C3BF2B",
"#  c #C1BD35",
"$  c #C1BE37",
"%  c #D3CB00",
"&  c #D0C90C",
"*  c #DDD500",
"=  c #DFD700",
"-  c #DAD306",
";  c #DAD309",
":  c #D2CB11",
">  c #D1CB17",
",  c #D8D112",
"<  c #DED715",
"1  c #E2DA03",
"2  c #E6DD00",
"3  c #E7DF00",
"4  c #E0D807",
"5  c #E4DD07",
"6  c #E8E101",
"7  c #EFE600",
"8  c #EAE204",
"9  c #EEE604",
"0  c #F1E800",
"q  c #F4EB00",
"w  c #F4EB03",
"e  c #F5EC00",
"r  c #F3EB04",
"t  c #F3EB05",
"y  c #F4EB05",
"u  c #F3EB08",
"i  c #F1EA0C",
"p  c #EDE713",
"a  c #EFE91D",
"s  c #F0E913",
"d  c #F0E917",
"f  c #C8C321",
"g  c #C9C528",
"h  c #D3CE2A",
"j  c #D1CD2C",
"k  c #D2CC2C",
"l  c #CCC735",
"z  c #CDC932",
"x  c #C5C23D",
"c  c #EDE725",
"v  c #EDE821",
"b  c #EDE728",
"n  c #ECE62C",
"m  c #EAE634",
"M  c #E9E538",
"N  c #E8E53E",
"B  c #B6B341",
"V  c #BEBB43",
"C  c #BFBD45",
"Z  c #BDBB4E",
"A  c #AEAE58",
"S  c #BCBA53",
"D  c #BBBB5D",
"F  c #B4B66F",
"G  c #B3B570",
"H  c #B4B570",
"J  c #B3B474",
"K  c #BCBE75",
"L  c #B3B67A",
"P  c #BBBD79",
"I  c #C2BF43",
"U  c #BFC17C",
"Y  c #C6C445",
"T  c #C7C653",
"R  c #C5C459",
"E  c #D3D254",
"W  c #E7E345",
"Q  c #E6E348",
"!  c #E5E24D",
"~  c #E2E05A",
"^  c #CECE67",
"/  c #DFDE66",
"(  c #DFDE69",
")  c #DDDD6C",
"_  c #C5C570",
"`  c #DBDD73",
"'  c #DCDD71",
"]  c #DCDC77",
"[  c #DADC79",
"{  c #DADC7A",
"}  c #E0DF63",
"|  c #ADB080",
" . c #B3B787",
".. c #B8BB87",
"X. c #B5B993",
"o. c #B1B69D",
"O. c #B7BDA7",
"+. c #B8BFB4",
"@. c #BCC195",
"#. c #BDC29D",
"$. c #B8C0B6",
"%. c #BEC6BF",
"&. c #D7D985",
"*. c #D7DA87",
"=. c #D9DB80",
"-. c #D7D988",
";. c #D6D98B",
":. c #D6D88E",
">. c #C2C79C",
",. c #D4D893",
"<. c #D3D799",
"1. c #D1D69F",
"2. c #CFD5A4",
"3. c #CFD5A6",
"4. c #CDD3AD",
"5. c #C4CBB5",
"6. c #C5CCB4",
"7. c #C6CEBC",
"8. c #CBD3B3",
"9. c #CCD3B2",
"0. c #CAD1B9",
"q. c #C9D0BD",
"w. c #BBC4C8",
"e. c #BDC7CE",
"r. c #BDC7CF",
"t. c #BEC8D1",
"y. c #BEC8D2",
"u. c #BFCAD7",
"i. c #BFCADA",
"p. c #C7CFC4",
"a. c #C6CFC5",
"s. c #C6CFC7",
"d. c #C5CECA",
"f. c #C0C9CE",
"g. c #C5CECC",
"h. c #C7D0C3",
"j. c #C3CDD0",
"k. c #C3CDD1",
"l. c #C2CCD6",
"z. c #C1C9DA",
"x. c #C0CBDB",
"c. c #C1CCD8",
"v. c #C0CBDC",
/* pixels */
"v.v.v.v.v.v.v.v.v.v.v.v.v.x.k.q.9.9.0.d.$.o.r.v.v.v.v.v.v.v.v.v.",
"v.v.v.v.v.v.v.v.v.v.v.l.0.*.} ! N N Q ~ ^ A | y.v.v.v.v.v.v.v.v.",
"v.v.v.v.v.v.v.v.x.v.d.,.! a i e e e e y p k B ..r.c.v.v.v.v.v.v.",
"v.v.v.v.v.v.v.v.x.h.] b q e e e e e e e e 0 < $ P y.v.v.v.v.v.v.",
"v.v.v.v.v.v.v.x.p.} v e e e e e e e q q q e 0 4 + U u.v.v.v.v.v.",
"v.v.v.v.v.v.v.d.=.a e q e e e e e 7 1 e e e e 0 - $ #.x.v.v.v.v.",
"v.v.v.v.v.v.l.1.m e e e e e e e e 6 . e e e e e 7 : Z %.v.v.v.v.",
"v.v.v.v.v.v.q.~ q e e e e e e e e 2   q e e e e q 6 f K x.v.v.v.",
"v.v.v.v.v.l.<.v q e e e e e e e e 2   e e e e e e 0 ; V $.x.v.v.",
"v.v.v.v.v.a.} u q e e e e e e e e 2   e e e e e e e 7 g P x.v.v.",
"v.v.v.v.v.4.m e e e e e e e e e e 2   e e e e e e e e , S w.v.v.",
"v.v.v.v.c.<.d e e e e e e e e e e 2   e e e e e e e e 5 Y O.v.v.",
"v.v.v.v.j.&.i e e e e e e e e e e 2   e e e e e e e e 9 x  .i.v.",
"v.v.v.v.d.` y e e e e e e e e e e 2   e e e e e e e e q z J x.v.",
"v.v.v.v.a.( q e e e e e e e e e e 2   e e e e e e e q e k G t.v.",
"v.v.v.v.a.} e e e e e e e e e e e 3   e e e e e e e q q h F t.v.",
"v.v.v.v.h.) e e e e e e e e e e e 2   e e e e e e e e e k H u.i.",
"v.v.v.v.g.{ y e e e e e e e e e e 2   e e e e e e e e 0 l L v.v.",
"v.v.v.v.l.;.i e e e e e e e e e e 2   e e e e e e e e 8 x X.v.v.",
"v.v.v.v.c.1.a e e e e e e e e e e 3   e e e e e e e e 4 C $.v.v.",
"v.v.v.v.v.9.W e e e e e e e e e e 2   e e e e e e e 0 > D u.i.x.",
"v.v.v.v.v.g.{ i e e e e e e e e e 2   e e e e e e e 4 # @.x.v.v.",
"v.v.v.v.v.l.3.n e e e e e e e e e 2   q e e e e e 7 & Y e.v.v.v.",
"v.v.v.v.v.x.p.' i e e e e e e e e 7 % q e e e e 7 - + >.x.v.v.v.",
"v.v.v.v.v.v.c.9.W q q e e e e e q q 0 e e e q 7 = O _ y.x.x.x.v.",
"v.v.v.v.v.v.v.k.,.c e e e e e e e q q e e q 0 * X T a.v.x.x.v.v.",
"v.v.v.v.v.v.v.v.g.;.n y e e e e e e e e e q * o Y 5.x.v.v.v.v.v.",
"v.v.v.v.v.v.v.v.v.g.,.W i e e e e e e q q 1 O R 6.v.v.v.v.v.v.v.",
"v.v.v.v.v.v.v.v.v.v.l.4.{ M s u e y u s b E P 7.v.v.v.x.x.x.x.x.",
"v.v.v.v.v.v.v.v.v.v.v.l.d.4.,.{ } } ] ;.3.7.f.v.v.v.v.v.x.x.x.x.",
"v.v.v.v.v.v.v.v.v.v.v.v.l.l.l.g.p.s.s.k.x.v.v.v.v.v.v.v.v.v.x.x.",
"v.v.v.v.v.v.v.v.v.v.v.v.v.v.x.x.x.v.v.v.v.v.v.v.v.v.v.v.v.v.v.v."
};
