/* XPM */
static char *_c3f82dd6d2b4ef3ac5312f059903b8bn0WlO8zCECPOgw79[] = {
/* columns rows colors chars-per-pixel */
"32 32 60 1 ",
"  c #040201",
". c #1B1005",
"X c #201407",
"o c #211507",
"O c #231608",
"+ c #2E1E0C",
"@ c #392611",
"# c #3C2812",
"$ c #3F2A13",
"% c #402B14",
"& c #422D15",
"* c #432D15",
"= c #442E16",
"- c #402D18",
"; c #4A3318",
": c #4F361A",
"> c #4C361D",
", c #50371B",
"< c #553B1D",
"1 c #573C1E",
"2 c #593E1F",
"3 c #593E20",
"4 c #5B4123",
"5 c #5F4221",
"6 c #634523",
"7 c #634626",
"8 c #684927",
"9 c #6F4E28",
"0 c #704E29",
"q c #72502A",
"w c #76532B",
"e c #73512C",
"r c #77542C",
"t c #79552D",
"y c #7C572E",
"u c #7F5A31",
"i c #805A30",
"p c #835C31",
"a c #845D31",
"s c #886033",
"d c #8C6335",
"f c #8D6435",
"g c #906637",
"h c #926838",
"j c #956939",
"k c #9A6E3B",
"l c #9B6E3B",
"z c #9D6F3C",
"x c #9F713D",
"c c #A0723E",
"v c #A2733F",
"b c #A3743F",
"n c #A4743F",
"m c #A4753F",
"M c #A47540",
"N c #A77741",
"B c #A87741",
"V c #AA7942",
"C c #90949B",
"Z c #B0B8C5",
/* pixels */
"C>uuuuuuiuuuuuuuuuuuuuuuuuuuuuu7",
"C4VVVVVVVVVVVVVVVVVVVVVVVVVVVVVu",
"C4VVVVVVVVVVVVVVVVVVVVVVVVVVVVVu",
"C4VVVVVVVVVVVVVVVVVVVVVVVVVVVVVu",
"C4VVVVVVVVVVVVVVVVVVVVVVVVVVVVVu",
"C4VVVVy&#######@9NVVM0::::::,3au",
"C4VVVVNbNccMVcNcNVVVNlhhhhhhhjNu",
"C4VVVVVVVVVVVVVVVVVVVVVVVVVVVVVu",
"C4VVVVVVVVVVVVVVVVVVVVVVVVVVVVVu",
"C4VVVVVVVVVVVVVVVVVVVVVVVVVVVVVu",
"C4VVVVVVVVVVVVVVVVVVVVVVVVVVVVVu",
"C4VVVxdaaaaaaaaaahcVVzddddddddlu",
"C4VVVj95555555556wlVVi2<<<<<2<uu",
"C4VVVVVVVVVVVVVVBVVVVVVVVVVVVVVu",
"C4VVVVVVVVVVVVVVVVVVVVVVVVVVVVVu",
"C4VVVVVVVVVVVVVVVVVVVVVVVVVVbVVu",
"C4VVVVVVVVVVVVVVVVVVVVVVVVVj,6ku",
"C4VVVd6#%%%#%%%#2gVVVz6ooX..o o2",
"C4VVVBMcccccncNznBVVVVcxzzzd@+tt",
"C4VVVVVVVVVVVVVVVVVVVVVVVVVngzBi",
"C4VVVVVVVVVVVVVVVVVVVVVVVVVndkVi",
"C4VVVBVVVVVVVVVVVVVVVVVVVVVl3,te",
"C4VVVNMzzzklzzzzznVVni666672+ #8",
"C4VVNu;***&***&&*0nVci666675;,te",
"C4VVVVVVVVVVVVVVVVVVVVVVVVVNgzVu",
"C4VVVVVVVVVVVVVVVVVVVVVVVVVVVVVi",
"C4VVVVVVVVVVVVVVVVVVVVVVVVVVVVVi",
"C4VVVVVVVVVVVVVVVVVVVVVVVVVVVVVi",
"C4VVVVVVVVVVVVVVVVVVVVVVVVVVVVVu",
"C4VVVVVVVVVVVVVVVVVVVVVVVVVVVVVu",
"C&44444444444444444444444444444>",
"ZCCCCCCCCCCCCCCCCCCCCCCCCCCCCCCC"
};
